<svg width="745" height="744" viewBox="0 0 745 744" fill="none" xmlns="http://www.w3.org/2000/svg">
<path d="M495.288 242.342L556.467 242.342L583.05 422.058L583.778 422.058L601.986 242.342L667.534 242.342L623.107 502.094L548.819 502.094L526.242 327.471L525.513 327.471L502.936 502.094L428.648 502.094L384.221 242.342L449.769 242.342L470.162 422.058L470.89 422.058L495.288 242.342Z" fill="black"/>
<path d="M291.648 295.456L273.076 405.687L310.948 405.687L292.376 295.456L291.648 295.456ZM334.618 242.342L397.981 502.094L325.878 502.094L318.959 456.619L265.064 456.619L258.146 502.094L187.135 502.094L249.406 242.342L334.618 242.342Z" fill="black"/>
<path d="M67.7329 352.209L81.2067 352.209C90.9175 352.209 98.0792 349.42 102.692 343.842C107.304 338.021 109.611 330.502 109.611 321.286C109.611 310.372 107.304 302.611 102.692 298.003C98.322 293.395 91.0389 291.091 80.8425 291.091L67.7329 291.091L67.7329 352.209ZM1.44541e-05 242.342L105.969 242.342C118.836 242.342 129.761 244.04 138.743 247.435C147.969 250.83 155.373 255.681 160.957 261.987C166.783 268.05 170.91 275.326 173.338 283.815C176.008 292.304 177.344 301.52 177.344 311.464C177.344 328.926 173.824 342.993 166.783 353.664C159.743 364.336 148.454 370.884 132.917 373.309L132.917 374.037C149.182 375.492 160.35 381.192 166.419 391.136C172.488 401.079 175.523 414.782 175.523 432.245L175.523 454.436C175.523 457.832 175.523 461.349 175.523 464.987C175.523 468.625 175.644 472.141 175.887 475.537C176.13 478.69 176.494 481.6 176.98 484.268C177.465 486.936 179.407 492.564 181.036 495.187C182.664 497.809 183.34 498.64 186.448 502.094L114.345 502.094C112.645 498.699 111.31 494.697 110.339 490.089C109.611 485.481 109.004 480.873 108.518 476.264C108.276 471.656 108.033 467.291 107.79 463.168C107.79 458.802 107.79 455.285 107.79 452.617L107.79 435.155C107.79 427.879 107.426 421.816 106.698 416.965C105.969 412.115 104.634 408.355 102.692 405.687C100.992 402.777 98.6861 400.837 95.7729 399.867C93.1024 398.654 89.7036 398.048 85.5765 398.048L67.7329 398.048L67.7329 502.094L-1.1695e-08 502.094L1.44541e-05 242.342Z" fill="black"/>
<path d="M742.671 461.658C742.671 472.79 738.581 482.323 730.402 490.258C722.46 498.192 712.739 502.159 701.241 502.159C689.861 502.159 679.963 498.133 671.547 490.08C663.367 481.909 659.278 472.02 659.278 460.415C659.278 449.046 663.308 439.335 671.369 431.282C679.43 423.23 689.15 419.203 700.53 419.203C712.265 419.203 722.223 423.348 730.402 431.638C738.581 439.809 742.671 449.816 742.671 461.658Z" fill="black"/>
</svg>
