<svg width="815" height="423" viewBox="0 0 815 423" fill="none" xmlns="http://www.w3.org/2000/svg">
<path d="M540.792 0.467536L606.865 0.46754L635.575 194.561L636.361 194.561L656.026 0.467542L726.818 0.467546L678.837 281L598.606 281L574.222 92.4068L573.435 92.4068L549.051 281L468.821 281L420.84 0.467529L491.631 0.467533L513.656 194.561L514.442 194.561L540.792 0.467536Z" fill="white"/>
<path d="M320.861 57.8313L300.803 176.881L341.705 176.881L321.647 57.8313L320.861 57.8313ZM367.269 0.467538L435.701 281L357.83 281L350.357 231.887L292.151 231.887L284.678 281L207.987 281L275.239 0.467533L367.269 0.467538Z" fill="white"/>
<path d="M79.0324 119.124L93.5841 119.124C104.072 119.124 111.806 116.112 116.788 110.087C121.77 103.801 124.261 95.681 124.261 85.7274C124.261 73.9403 121.77 65.5584 116.788 60.5816C112.069 55.6049 104.203 53.1165 93.1908 53.1165L79.0324 53.1165L79.0324 119.124ZM5.88089 0.467529L120.328 0.467536C134.224 0.467536 146.022 2.30109 155.724 5.96818C165.687 9.63527 173.684 14.874 179.714 21.6843C186.007 28.2327 190.464 36.0907 193.086 45.2585C195.97 54.4262 197.412 64.3797 197.412 75.1191C197.412 93.9784 193.61 109.171 186.007 120.696C178.403 132.221 166.211 139.293 149.431 141.913L149.431 142.698C166.998 144.27 179.059 150.425 185.613 161.165C192.168 171.904 195.446 186.703 195.446 205.563L195.446 229.53C195.446 233.197 195.446 236.995 195.446 240.924C195.446 244.853 195.577 248.651 195.839 252.318C196.101 255.723 196.494 258.867 197.019 261.748C197.543 264.629 199.641 270.707 201.399 273.54C203.158 276.373 203.889 277.27 207.244 281L129.373 281C127.538 277.333 126.096 273.011 125.047 268.034C124.261 263.058 123.605 258.081 123.081 253.104C122.818 248.127 122.556 243.412 122.294 238.959C122.294 234.245 122.294 230.447 122.294 227.565L122.294 208.706C122.294 200.848 121.901 194.3 121.114 189.061C120.328 183.822 118.886 179.762 116.788 176.881C114.953 173.738 112.462 171.642 109.316 170.594C106.431 169.285 102.761 168.63 98.3035 168.63L79.0324 168.63L79.0324 281L5.88087 281L5.88089 0.467529Z" fill="white"/>
<path d="M807.965 237.329C807.965 249.352 803.549 259.648 794.715 268.217C786.137 276.786 775.639 281.07 763.221 281.07C750.931 281.07 740.241 276.722 731.151 268.025C722.318 259.2 717.901 248.52 717.901 235.986C717.901 223.708 722.254 213.221 730.959 204.524C739.665 195.826 750.163 191.478 762.453 191.478C775.127 191.478 785.881 195.954 794.715 204.907C803.549 213.732 807.965 224.54 807.965 237.329Z" fill="white"/>
<path d="M6.91797 404L6.91797 349.747L27.3711 349.747C37.5601 349.747 44.7788 356.777 44.7788 367.079V367.154C44.7788 377.456 37.5601 384.637 27.3711 384.637L13.6855 384.637L13.6855 404H6.91797ZM25.6416 355.762L13.6855 355.762L13.6855 378.622L25.6416 378.622C33.3867 378.622 37.8608 374.373 37.8608 367.229V367.154C37.8608 360.011 33.3867 355.762 25.6416 355.762ZM68.1901 404L68.1901 349.747L88.9064 349.747C99.3586 349.747 106.201 356.138 106.201 365.876V365.951C106.201 373.471 102.103 379.336 95.298 381.479L107.856 404H99.9225L88.3049 382.532L74.9577 382.532L74.9577 404H68.1901ZM74.9577 376.516L88.3049 376.516C95.2604 376.516 99.2082 372.794 99.2082 366.177V366.102C99.2082 359.635 94.9972 355.762 88.0041 355.762L74.9577 355.762L74.9577 376.516ZM153.6 405.278C138.035 405.278 128.71 394.225 128.71 376.892V376.817C128.71 359.409 138.26 348.468 153.6 348.468C169.015 348.468 178.49 359.447 178.49 376.817V376.892C178.49 394.187 169.09 405.278 153.6 405.278ZM153.6 399.037C164.729 399.037 171.572 390.314 171.572 376.892V376.817C171.572 363.282 164.691 354.709 153.6 354.709C142.546 354.709 135.628 363.282 135.628 376.817V376.892C135.628 390.314 142.321 399.037 153.6 399.037ZM214.383 404L214.383 355.837H196.9V349.747L238.634 349.747V355.837H221.151L221.151 404L214.383 404ZM261.406 404L261.406 349.747L295.018 349.747V355.837L268.174 355.837V373.245L293.627 373.245V379.261L268.174 379.261L268.174 397.909L295.018 397.909V404L261.406 404ZM319.595 404L319.595 349.747H326.363L326.363 404H319.595ZM352.519 404L352.519 349.747H359.098L388.537 391.969H389.139L389.139 349.747H395.831L395.831 404H389.252L359.813 361.928H359.211L359.211 404H352.519ZM473.747 405.278C461.866 405.278 454.196 399.037 453.407 390.202L453.369 389.788H460.137L460.174 390.202C460.663 395.616 466.303 399.037 474.123 399.037C481.492 399.037 486.869 395.24 486.869 389.713V389.675C486.869 385.164 483.748 382.081 476.304 380.426L470.288 379.11C459.422 376.704 454.723 371.704 454.723 363.846V363.808C454.76 354.822 462.618 348.468 473.822 348.468C484.65 348.468 492.207 354.86 492.771 362.943L492.809 363.47H486.041L485.966 362.981C485.214 358.206 480.703 354.672 473.634 354.709C466.867 354.747 461.641 357.943 461.641 363.62V363.658C461.641 367.981 464.611 370.914 471.98 372.531L477.996 373.884C489.312 376.403 493.787 380.953 493.787 388.773V388.811C493.787 398.962 485.853 405.278 473.747 405.278ZM517.386 404L517.386 349.747H524.153L524.153 373.208L553.931 373.208L553.931 349.747H560.698L560.698 404H553.931V379.298L524.153 379.298V404H517.386ZM582.531 404L602.533 349.747H609.225L629.227 404H622.121L616.669 388.472L595.088 388.472L589.637 404H582.531ZM605.578 358.507L597.081 382.72H614.677L606.18 358.507H605.578ZM651.059 404L651.059 349.747H657.827L657.827 376.103H658.428L682.19 349.747H690.687L668.993 373.17L692.68 404H683.919L664.331 377.87L657.827 385.051V404H651.059ZM714.136 404L714.136 349.747L747.748 349.747V355.837L720.903 355.837L720.903 373.245H746.357V379.261H720.903V397.909H747.748V404H714.136ZM790.109 405.278C778.228 405.278 770.558 399.037 769.768 390.202L769.731 389.788H776.498L776.536 390.202C777.025 395.616 782.664 399.037 790.485 399.037C797.854 399.037 803.23 395.24 803.23 389.713V389.675C803.23 385.164 800.11 382.081 792.665 380.426L786.65 379.11C775.784 376.704 771.084 371.704 771.084 363.846V363.808C771.122 354.822 778.98 348.468 790.184 348.468C801.012 348.468 808.569 354.86 809.133 362.943L809.171 363.47H802.403L802.328 362.981C801.576 358.206 797.064 354.672 789.996 354.709C783.228 354.747 778.002 357.943 778.002 363.62V363.658C778.002 367.981 780.972 370.914 788.342 372.531L794.357 373.884C805.674 376.403 810.148 380.953 810.148 388.773V388.811C810.148 398.962 802.215 405.278 790.109 405.278Z" fill="white"/>
</svg>
